<svg width="512" height="512" viewBox="0 0 512 512" fill="none" xmlns="http://www.w3.org/2000/svg">
  <rect width="512" height="512" rx="0" fill="#070707"/>
  <text x="256" y="61" text-anchor="middle" fill="#FFFFFF" font-family="Arial, Helvetica, sans-serif" font-size="39" font-weight="800" letter-spacing="1.5">ENGAGE NOW</text>
  <text x="256" y="469" text-anchor="middle" fill="#FFFFFF" font-family="Arial, Helvetica, sans-serif" font-size="42" font-weight="800" letter-spacing="1.4">AFRICA</text>
  <rect x="112" y="101" width="288" height="288" fill="#0B0B0B"/>
  <path d="M123 112H253V378H123V112Z" fill="#F7191D"/>
  <path d="M253 112H282V378H253V112Z" fill="#F6E847"/>
  <path d="M282 112H389V378H282V112Z" fill="#1F7035"/>
  <rect x="112" y="101" width="288" height="288" stroke="#111111" stroke-width="10"/>
  <path d="M251 76L270 95L298 91L288 116L303 140L275 138L257 160L248 133L221 124L245 110L251 76Z" fill="#F6E847"/>
  <g fill="#080808">
    <path d="M353 132C337 125 313 123 296 126C278 129 260 139 246 153C235 165 229 181 218 194C206 208 189 213 178 227C164 245 163 268 176 286C183 296 196 303 200 316C205 331 195 347 199 363C202 376 212 383 224 386C232 388 240 386 247 382C253 378 258 374 266 375C277 377 280 391 291 390C300 389 306 377 308 369C312 352 305 335 311 319C317 303 333 295 339 279C345 263 335 251 327 238C320 227 316 216 319 203C323 185 341 176 350 161C356 151 360 140 353 132Z"/>
    <path d="M179 157C196 145 218 140 237 145C225 156 214 168 207 183C200 198 196 210 184 219C177 224 168 229 164 237C157 222 158 206 166 191C171 181 172 167 179 157Z"/>
    <path d="M233 198C242 194 249 201 248 210C247 220 238 228 229 232C222 226 219 216 222 208C224 203 227 200 233 198Z"/>
    <path d="M300 171C311 166 323 174 322 186C321 198 308 205 297 201C288 197 284 185 289 177C291 174 295 172 300 171Z"/>
    <path d="M249 304C257 303 264 309 265 317C266 326 259 333 251 333C243 333 237 326 238 318C239 311 242 306 249 304Z"/>
  </g>
  <path d="M135 125C174 119 207 119 246 125M132 139C171 133 205 134 241 141M130 154C168 148 201 150 235 157M128 169C162 164 194 166 226 174M128 185C157 181 186 184 214 193M129 201C153 199 177 202 200 210M132 218C150 217 166 220 183 227M136 236C149 237 161 241 173 247M354 126C332 118 308 117 288 122M365 143C342 135 316 134 291 140M371 161C346 153 320 153 297 160M373 179C348 171 323 172 304 178M371 198C349 191 328 191 312 197" stroke="#080808" stroke-width="8" stroke-linecap="round"/>
</svg>
