<svg xmlns="http://www.w3.org/2000/svg" viewBox="0 0 600 520" fill="none">
  <defs>
    <linearGradient id="g1" x1="0" y1="0" x2="1" y2="1">
      <stop offset="0%" stop-color="#1273de"/>
      <stop offset="100%" stop-color="#0d9488"/>
    </linearGradient>
    <linearGradient id="g2" x1="1" y1="0" x2="0" y2="1">
      <stop offset="0%" stop-color="#6366f1"/>
      <stop offset="100%" stop-color="#1273de"/>
    </linearGradient>
    <filter id="blur"><feGaussianBlur stdDeviation="24"/></filter>
  </defs>
  <rect width="600" height="520" rx="32" fill="#f8fafc"/>
  <circle cx="120" cy="100" r="70" fill="#1273de" opacity="0.15" filter="url(#blur)"/>
  <circle cx="480" cy="420" r="90" fill="#0d9488" opacity="0.12" filter="url(#blur)"/>
  <path d="M280 80 L320 75 L340 95 L355 130 L350 170 L335 210 L320 250 L300 290 L285 330 L270 370 L255 400 L240 430 L220 450 L200 440 L185 410 L175 370 L170 330 L165 290 L160 250 L155 210 L150 170 L155 130 L170 100 L200 85 L240 78 Z" fill="url(#g1)" opacity="0.9"/>
  <circle cx="230" cy="180" r="28" fill="#fff" opacity="0.9"/>
  <circle cx="290" cy="220" r="22" fill="#fff" opacity="0.85"/>
  <circle cx="250" cy="280" r="18" fill="#fff" opacity="0.8"/>
  <circle cx="310" cy="300" r="14" fill="#fff" opacity="0.75"/>
  <rect x="380" y="120" width="160" height="110" rx="16" fill="url(#g2)" opacity="0.85"/>
  <rect x="60" y="300" width="140" height="100" rx="16" fill="#1273de" opacity="0.75"/>
  <rect x="400" y="320" width="130" height="90" rx="16" fill="#0d9488" opacity="0.7"/>
  <text x="300" y="490" text-anchor="middle" fill="#64748b" font-family="Arial,sans-serif" font-size="14" font-weight="600">Communities · Education · Health · Water</text>
</svg>
